<svg width="800" height="800" viewBox="0 0 800 800" fill="none" xmlns="http://www.w3.org/2000/svg">
<path d="M400 733.333C584 733.333 733.333 584 733.333 400C733.333 216 584 66.6667 400 66.6667C216 66.6667 66.6667 216 66.6667 400C66.6667 584 216 733.333 400 733.333Z" stroke="white" stroke-width="50" stroke-linecap="round" stroke-linejoin="round"/>
<path d="M400 533.333C473.667 533.333 533.333 473.667 533.333 400C533.333 326.333 473.667 266.667 400 266.667C326.333 266.667 266.667 326.333 266.667 400C266.667 473.667 326.333 533.333 400 533.333Z" stroke="white" stroke-width="50" stroke-linecap="round" stroke-linejoin="round"/>
<path d="M705.667 266.667C605 244.667 500.667 244.667 400 266.667" stroke="white" stroke-width="50" stroke-linecap="round" stroke-linejoin="round"/>
<path d="M131.667 202.002L132.334 204.002C166 300.335 217.667 389.67 284.667 466.67" stroke="white" stroke-width="50" stroke-linecap="round" stroke-linejoin="round"/>
<path d="M362.667 731.333C431.333 655.667 483 566.333 514.333 469.333L515.333 466.667" stroke="white" stroke-width="50" stroke-linecap="round" stroke-linejoin="round"/>
</svg>
